<svg xmlns="http://www.w3.org/2000/svg" viewBox="0 0 512 512">
  <path d="m295.813 15.563 3.167.027c20.301.452 38.16 9.037 52.192 23.676C360.894 50.646 365.99 64.06 371 77.938l.757 2.065c5.24 14.403 5.24 14.403 4.243 20.997-2.158 3.719-4.32 4.836-8.316 6.255l-3.303 1.195-3.588 1.253-3.73 1.338c-3.287 1.179-6.58 2.342-9.873 3.502-3.265 1.153-6.525 2.319-9.786 3.484a4514.449 4514.449 0 0 1-11.47 4.084 1880.735 1880.735 0 0 0-26.472 9.592l-2.515.925-2.18.808C293 134 293 134 291 134c2.339 2.417 4.682 4.729 7.242 6.914C308.178 149.426 315.15 159.346 321 171l1.434-3.043c6.773-14.119 14.126-27.407 27.753-35.957 8.219-2.156 17-2.349 24.633 1.691L377 135l2.43 1.402c6.493 3.94 12.468 8.507 18.501 13.101C412.916 161.276 412.916 161.276 431 164c8.578-4.389 11.986-15.797 14.813-24.414 3.679-11.903 5.984-24.254 8.023-36.531l.38-2.23c.321-1.923.618-3.85.913-5.778.984-3.44 2.118-4.82 4.871-7.047 1.813-.938 1.813-.938 4-1 6.69 2.381 6.69 2.381 8 5 .75 9.177-.757 17.973-2.563 26.938l-.403 2.043c-4.157 20.908-9.493 45.599-28.116 58.457-7.267 3.882-15.88 3.666-23.77 1.937-11.879-3.925-22.197-11.143-31.898-18.84-3.347-2.644-6.805-5.109-10.313-7.535l-3.16-2.188c-4.885-3.188-7.804-4.43-13.777-3.812-14.708 8.21-20.496 29.696-25.114 44.822l-1.075 3.515L331 200l2.137-.027c6.65-.08 13.3-.141 19.951-.18 3.42-.021 6.838-.05 10.257-.095 3.932-.052 7.864-.071 11.796-.089l3.715-.062 3.457-.001 3.042-.027c3.474.632 4.61 1.613 6.645 4.481.508 2.884.508 2.884.518 6.266l.038 3.842c-.007 1.38-.016 2.761-.025 4.142.003 1.42.007 2.84.012 4.259.006 2.972-.003 5.944-.022 8.917-.022 3.807-.01 7.612.015 11.419.014 2.93.01 5.861 0 8.792-.003 1.403 0 2.806.01 4.21a389.18 389.18 0 0 1-.028 5.887l-.01 3.382c-.621 3.526-1.727 4.702-4.508 6.884-2 .531-2 .531-4 .5l-2 .031c-2-.531-2-.531-6-4.531v-52H72l.375 103.125.103 32.52c.04 9.65.04 9.65.082 19.298.02 4.286.033 8.572.043 12.858.013 5.48.035 10.96.064 16.439.01 2.003.015 4.006.017 6.01.027 21.455 1.402 41.617 17.316 57.75 11.003 10.081 24.445 14.116 39.074 15.348 3.516.784 4.785 1.786 6.926 4.652.531 2 .531 2 .5 4l.031 2c-.802 3.02-2.022 4.157-4.531 6-16.118 2.546-32.725-2.984-46-12-15.774-11.921-26.786-28.358-30-48-.57-7.512-.421-15.068-.404-22.596l-.02-6.843a4832.26 4832.26 0 0 1-.012-18.494c.003-5.15-.003-10.3-.009-15.449a18348.32 18348.32 0 0 1 0-38.503c.01-11.145-.002-22.29-.026-33.435a12706.57 12706.57 0 0 1-.027-34.376c.003-6.428 0-12.855-.017-19.282-.015-6.035-.011-12.07.008-18.104.003-2.217 0-4.434-.01-6.652a882.24 882.24 0 0 1 .016-9.058l-.03-2.675c.047-3.831.075-5.882 2.314-9.078 2.348-1.54 3.423-1.951 6.19-1.936l2.363-.017 2.563.044 2.721-.002c2.966.003 5.93.034 8.896.065 2.057.008 4.114.014 6.17.018 5.413.015 10.824.054 16.236.098 5.524.041 11.047.06 16.57.08 10.836.043 21.672.11 32.508.195l.184-2.266.254-2.984.246-2.953c.267-2.362.67-4.516 1.316-6.797l-1.898-.332-2.477-.48-2.46-.458C145 183 145 183 143 180c-.536-5.632-.536-5.632 0-8 2.639-3.04 4.905-4.647 8.67-6.017l2.84-1.05 3.1-1.109 3.286-1.205a2552.4 2552.4 0 0 1 10.854-3.931c2.562-.932 5.123-1.867 7.684-2.801a6724.483 6724.483 0 0 1 26.597-9.618c11.998-4.32 24-8.632 36.005-12.93 20.083-7.193 40.113-14.519 60.121-21.918C320.055 104.8 337.98 98.28 356 92c-6.397-20.53-12.589-39.957-32.188-51.566-8.943-4.56-17.25-6.634-27.187-6.746l-2.48-.088c-14.698-.147-29.049 6.787-42.605 11.826a3849.33 3849.33 0 0 1-9.815 3.628c-9.245 3.41-18.483 6.84-27.69 10.352l-3.765 1.427a709.188 709.188 0 0 0-6.542 2.525C198.584 65.313 194.514 66.609 189 66c-2.938-1.438-2.938-1.438-5-4-.707-3.134-.925-5.91 0-9 3.737-3.527 7.685-5.256 12.473-6.89l2.24-.794c2.447-.864 4.898-1.715 7.35-2.566 2.611-.918 5.222-1.84 7.832-2.762 1.833-.647 3.666-1.293 5.5-1.938 6.87-2.42 13.714-4.906 20.55-7.421l2.98-1.095c3.865-1.419 7.728-2.838 11.588-4.268 26.627-9.857 26.627-9.857 41.3-9.703Zm-35.52 129.282-3.416 1.227-3.69 1.354-3.873 1.4c-2.722.985-5.442 1.975-8.16 2.97-4.717 1.724-9.44 3.431-14.163 5.14a1290.93 1290.93 0 0 0-9.984 3.658 19882.425 19882.425 0 0 1-5.987 2.222 375.817 375.817 0 0 1-12.252 4.263 579.088 579.088 0 0 0-8.04 2.75 224.416 224.416 0 0 1-5.605 1.8c-4.636 1.634-8.064 2.87-10.954 6.966-3.163 7.055-3.865 13.579-5.169 21.405h31l5-12c5.617-8.48 13.155-15.704 23.195-18.563 13.145-2.05 25.473-1.164 36.555 6.688 7.999 6.71 11.378 14.195 15.25 23.875h31c-3.524-21.141-12.751-37.872-30-51-7.547-5.22-11.771-7.4-20.707-4.155Zm-39.945 50.253c-1.53 1.963-1.53 1.963-2.348 4.902h44c-2.776-5.691-2.776-5.691-6.875-9.75l-1.992-1.734c-11.705-8.318-24.443-3.319-32.785 6.582Z"/>
  <path d="M219 266.313c2.773 1.94 2.773 1.94 5.355 1.445 3.766-1.08 7.123-2.787 10.633-4.504 13.635-5.677 30.953-5.276 44.61.066 15.11 7.46 25.354 18.292 31.277 34.18 4.957 18.672-.826 36.965-9.62 53.393-1.255 2.107-1.255 2.107-3 4.51-5.016 7.045-6.506 13.081-7.264 21.649-.305 3.432-.708 6.853-1.096 10.276l-.223 2.027C287.846 405.678 284.814 421.7 272 433c-5.304 3.009-10.265 4.756-16.336 3.527-5.35-1.626-9.951-3.363-12.735-8.505-3.836-9.208-3.465-18.348-3.429-28.147.665-14.618.665-14.618-4.5-27.875-4.2-4-7.048-5.36-12.902-5.285-4.24.576-7.02 3.13-9.848 6.16-3.2 5.439-3.542 10.579-3.559 16.707l-.076 5.014c-.028 2.606-.052 5.213-.071 7.82-.022 2.534-.062 5.069-.103 7.604v2.32c-.137 7.61-1.824 15.204-7.441 20.66-5.586 4.154-12.348 3.848-19 3-3.218-1.143-5.473-2.724-8-5l-1.863-1.656c-11.434-11.556-13.4-31.297-14.735-46.762-1.019-11.553-2.003-20.2-9.12-29.539C137.506 338.671 134.46 320.503 136 303c1.991-12.82 9.992-24.651 20.168-32.418 17.948-12.565 43.426-16.094 62.832-4.27Zm-60.883 27.07c-5.244 7.88-6.822 16.213-5.554 25.555 2.783 13.283 8.984 23.802 16.28 35.048 2.672 4.65 3.528 8.838 4.087 14.159l.472 4.244c.236 2.193.47 4.386.697 6.58C175.92 399.808 175.92 399.808 185 418c2.659 1.122 2.659 1.122 5 1 1.594-3.189 1.179-6.652 1.21-10.156l.087-5.04c.04-2.64.078-5.282.104-7.924.155-14.183.674-28.103 11.486-38.735 8.677-6.905 17.12-8.257 28.113-7.145 8.631 2.152 14.568 6.415 19.25 14 4.705 8.095 5.869 15.384 6.031 24.61l.056 2.448c.078 3.437.147 6.875.215 10.313.052 2.517.11 5.034.167 7.55l.04 2.365c.011 3.987.011 3.987 1.241 7.714 2.341.122 2.341.122 5-1 4.624-5.373 6.27-11.574 7.625-18.375l.633-2.988c1.56-7.738 2.417-15.474 3.18-23.325.95-9.406 2.166-16.388 7.562-24.312 9.152-13.908 15.025-27.043 13-44-1.953-9.237-8.074-16.415-15.598-21.89-10.103-6.28-19.724-7.396-31.402-6.11-6.27 1.602-11.25 4.249-16.25 8.313-3.08 2.433-5.528 3.66-9.625 3.347-3.696-1.148-6.51-3.546-9.586-5.836-18.047-12.966-41.435-5.876-54.422 10.559Z"/>
  <path d="m384 287.5 2-.031c2.93.778 4.095 2.2 6 4.531.503 2.7.503 2.7.508 5.847l.034 3.622-.024 3.966c.005 1.395.012 2.79.02 4.185.02 3.79.012 7.58 0 11.37-.01 3.978-.001 7.956.005 11.934.007 6.692-.002 13.385-.022 20.077a4140.07 4140.07 0 0 0 .008 23.11c.018 6.634.02 13.267.01 19.9-.006 3.952-.007 7.905.006 11.857.012 3.73.003 7.458-.02 11.187-.007 1.995.005 3.99.017 5.985-.178 19.313-7.103 36.63-20.769 50.312-16.628 15.878-34.55 21.12-57.228 21.052l-5.188.02c-4.66.019-9.32.018-13.982.012-3.897-.003-7.794.003-11.691.009-9.188.014-18.377.012-27.565.001-9.477-.011-18.954.003-28.432.03-8.15.022-16.3.028-24.449.022-4.862-.003-9.725 0-14.587.017-4.564.015-9.128.011-13.691-.008-1.676-.003-3.351 0-5.027.01a504.7 504.7 0 0 1-6.851-.016h-3.875c-3.76-.587-4.935-1.51-7.207-4.501-.531-2-.531-2-.5-4l-.031-2c.785-2.958 2.155-4.097 4.531-6 3.014-.502 3.014-.502 6.613-.506l2.01-.018c2.221-.016 4.442-.003 6.664.01 1.593-.006 3.187-.013 4.78-.022 3.434-.015 6.867-.018 10.3-.011 5.44.01 10.88-.007 16.32-.028 8.617-.03 17.235-.042 25.852-.045 15.395-.007 30.79-.036 46.185-.085a4366.2 4366.2 0 0 1 16.186-.019c3.376 0 6.753-.007 10.13-.017 1.552-.002 3.104-.002 4.655.003 19.65.053 37.74-2.088 52.83-15.794 13.557-13.494 16.655-31.088 16.743-49.542l-.013-3.57.017-5.907c.005-2.084.004-4.169.002-6.253-.002-4.362.012-8.725.03-13.087.046-12.393.07-24.787.077-37.18.004-6.87.022-13.74.055-20.61.02-4.336.023-8.671.012-13.007-.004-3.321.02-6.642.038-9.963l-.025-3.63.033-3.321.004-2.883c.908-4.547 3.885-7.087 8.502-7.015ZM167.875 61.438c2.69 3.243 2.719 5.247 2.79 9.343-.976 3.258-2.934 4.266-5.665 6.219-2.637 1.231-2.637 1.231-5.499 2.27l-3.27 1.205-3.52 1.263-3.676 1.345c-3.228 1.181-6.46 2.351-9.694 3.518-3.22 1.165-6.437 2.34-9.654 3.514a8748.52 8748.52 0 0 1-24.73 8.985c-2.647.956-5.292 1.918-7.937 2.88l-2.26.812C89.028 104.885 83.927 107.403 79 111l-2.055 1.438C67.155 120.056 59.915 132.825 58 145c-.734 9.618-.59 18.69 2 28 .444 3.773.265 5.47-1.438 8.875-3.255 2.7-5.302 2.868-9.445 2.59C47 184 47 184 44.625 182.187c-8.115-15.917-6.508-35.105-1.563-51.687C49.298 112.185 62.9 97.75 80 89c5.615-2.533 11.442-4.525 17.25-6.563 1.642-.587 3.283-1.176 4.924-1.766 2.578-.926 5.156-1.85 7.737-2.77a1332.094 1332.094 0 0 0 19.48-7.14l8.385-3.12c1.807-.674 3.613-1.35 5.417-2.03a1364.2 1364.2 0 0 1 7.588-2.822l2.259-.86c5.25-1.92 9.586-3.116 14.835-.492Z"/>
</svg>
